<svg width="99" height="61" viewBox="0 0 99 61" fill="none" xmlns="http://www.w3.org/2000/svg">
<g opacity="0.9" clip-path="url(#clip0_1_828)">
<path fill-rule="evenodd" clip-rule="evenodd" d="M4.43876 0H73.1122C74.3345 0 75.4522 0.454991 76.2563 1.18885C77.0605 1.9227 77.5671 2.94277 77.5671 4.05823V8.21185C76.9559 7.87428 76.3528 7.52937 75.7578 7.19179C75.227 7.5734 74.6883 7.93299 74.1495 8.28524V5.29844L63.8324 13.3195C61.3155 14.1708 58.7744 14.7725 56.2253 15.1541L71.713 3.11155H5.58868L39.3786 28.2535L45.6911 23.344C45.7554 24.6649 45.8438 25.9492 45.9645 27.2114L40.5044 31.4531C39.8932 31.9301 38.9765 31.9595 38.3251 31.4751L30.1229 25.3694L5.30723 48.0749H51.706C52.2689 49.1537 52.872 50.1958 53.5153 51.1938H4.4468C3.22451 51.1938 2.10676 50.7388 1.30262 49.9977C0.498486 49.2638 -8.01086e-05 48.2437 -8.01086e-05 47.1283V4.05823C-8.01086e-05 2.94277 0.498486 1.9227 1.30262 1.18885C2.10676 0.454991 3.21647 0 4.43876 0ZM98.6998 21.3405C99.8578 42.6517 91.2294 55.2447 75.9427 60.4918C61.1787 55.575 52.4539 43.5324 53.1052 21.0177C60.8651 21.3846 68.4803 19.8582 75.8623 14.6258C82.408 18.4125 90.7549 22.001 98.6998 21.3405ZM91.6234 26.4922C92.4115 41.0226 86.5332 49.6087 76.1116 53.1899C76.0473 53.1679 75.9829 53.1459 75.9106 53.1239V22.0084L76.0473 21.9203C80.5022 24.4961 86.1955 26.9399 91.6234 26.4922ZM96.0864 23.1972C97.1076 42.0573 89.4764 53.2046 75.9508 57.8573C62.8755 53.5055 55.1558 42.8425 55.7187 22.911C62.6021 23.2412 69.3408 21.8909 75.8623 17.253C81.6602 20.6067 89.0582 23.7843 96.0864 23.1972ZM3.40142 45.4184L27.4693 23.4027L3.40142 5.49659V45.4184Z" fill="white"/>
</g>
<defs>
<clipPath id="clip0_1_828">
<rect width="98.8125" height="60.4918" fill="white"/>
</clipPath>
</defs>
</svg>
