<svg width="38" height="35" viewBox="0 0 38 35" fill="none" xmlns="http://www.w3.org/2000/svg">
<path d="M38 16.4085C38 25.4707 29.4928 32.817 19 32.817C17.1182 32.8195 15.2441 32.5784 13.4259 32.0997C12.0389 32.7936 8.854 34.125 3.496 34.9923C3.021 35.0673 2.66 34.5798 2.84763 34.1438C3.68837 32.1841 4.44837 29.5728 4.67637 27.1912C1.767 24.308 0 20.5341 0 16.4085C0 7.34632 8.50725 0 19 0C29.4928 0 38 7.34632 38 16.4085ZM11.875 16.4085C11.875 15.7868 11.6248 15.1906 11.1794 14.751C10.734 14.3114 10.1299 14.0644 9.5 14.0644C8.87011 14.0644 8.26602 14.3114 7.82062 14.751C7.37522 15.1906 7.125 15.7868 7.125 16.4085C7.125 17.0302 7.37522 17.6264 7.82062 18.066C8.26602 18.5056 8.87011 18.7526 9.5 18.7526C10.1299 18.7526 10.734 18.5056 11.1794 18.066C11.6248 17.6264 11.875 17.0302 11.875 16.4085ZM21.375 16.4085C21.375 15.7868 21.1248 15.1906 20.6794 14.751C20.234 14.3114 19.6299 14.0644 19 14.0644C18.3701 14.0644 17.766 14.3114 17.3206 14.751C16.8752 15.1906 16.625 15.7868 16.625 16.4085C16.625 17.0302 16.8752 17.6264 17.3206 18.066C17.766 18.5056 18.3701 18.7526 19 18.7526C19.6299 18.7526 20.234 18.5056 20.6794 18.066C21.1248 17.6264 21.375 17.0302 21.375 16.4085ZM28.5 18.7526C29.1299 18.7526 29.734 18.5056 30.1794 18.066C30.6248 17.6264 30.875 17.0302 30.875 16.4085C30.875 15.7868 30.6248 15.1906 30.1794 14.751C29.734 14.3114 29.1299 14.0644 28.5 14.0644C27.8701 14.0644 27.266 14.3114 26.8206 14.751C26.3752 15.1906 26.125 15.7868 26.125 16.4085C26.125 17.0302 26.3752 17.6264 26.8206 18.066C27.266 18.5056 27.8701 18.7526 28.5 18.7526Z" fill="#D4088C"/>
</svg>
