<svg width="72" height="73" viewBox="0 0 72 73" fill="none" xmlns="http://www.w3.org/2000/svg">
<g opacity="0.9" clip-path="url(#clip0_1_803)">
<path d="M9.97657 14.9499C14.5529 16.4867 20.9134 17.3993 27.9794 17.3993C35.0454 17.3993 41.4119 16.4867 45.9823 14.9499C49.9955 13.6192 52.5029 12.0058 52.5029 10.4278C52.5029 8.84981 50.0192 7.24236 45.9823 5.91165C41.4119 4.39841 35.0514 3.4622 27.9794 3.4622C20.9075 3.4622 14.5529 4.39841 9.97657 5.8881C1.46418 8.71439 1.23299 12.0235 9.97657 14.9263V14.9499ZM51.5308 33.3031C54.1116 33.3012 56.6674 33.8053 59.0518 34.7864C61.4361 35.7675 63.6021 37.2063 65.4256 39.0204C67.2506 40.8315 68.6984 42.9821 69.6861 45.3493C70.6739 47.7165 71.1823 50.2538 71.1823 52.8162C71.1823 55.3787 70.6739 57.916 69.6861 60.2832C68.6984 62.6503 67.2506 64.8009 65.4256 66.6121C63.6023 68.4248 61.4372 69.8628 59.054 70.844C56.6709 71.8251 54.1164 72.3301 51.5367 72.3301C48.957 72.3301 46.4025 71.8251 44.0193 70.844C41.6362 69.8628 39.4711 68.4248 37.6478 66.6121C35.8228 64.8009 34.375 62.6503 33.3873 60.2832C32.3995 57.916 31.8911 55.3787 31.8911 52.8162C31.8911 50.2538 32.3995 47.7165 33.3873 45.3493C34.375 42.9821 35.8228 40.8315 37.6478 39.0204C39.47 37.2062 41.6349 35.7673 44.0183 34.7862C46.4017 33.8051 48.9567 33.3011 51.5367 33.3031H51.5308ZM52.6452 43.619L50.9795 51.8859L49.3197 49.4011C45.763 50.8261 43.7356 53.1813 43.4393 56.7966C40.4753 51.6975 42.2833 47.1224 46.006 44.4316L44.3107 41.8997L52.6096 43.6073L52.6452 43.619ZM49.9836 62.5375L51.6197 54.2942L53.2854 56.7789C56.8421 55.354 58.8694 52.9988 59.1658 49.3835C62.1298 54.4826 60.3514 59.0576 56.5991 61.7485L58.2944 64.2804L49.9955 62.5728L49.9836 62.5375ZM63.2501 41.2167C60.5357 38.5175 56.9629 36.8369 53.1407 36.4614C49.3184 36.0859 45.4834 37.0388 42.2893 39.1575C39.0951 41.2763 36.7396 44.4298 35.6243 48.0805C34.509 51.7313 34.7028 55.6532 36.1728 59.1779C37.6428 62.7025 40.298 65.6117 43.6857 67.4095C47.0734 69.2073 50.9839 69.7824 54.7507 69.0368C58.5176 68.2913 61.9075 66.2711 64.3427 63.3208C66.7778 60.3705 68.1075 56.6726 68.105 52.8575C68.1088 50.695 67.6818 48.5531 66.8486 46.5552C66.0153 44.5574 64.7924 42.743 63.2501 41.2167ZM26.0351 53.5817C19.3781 53.4463 13.3673 52.4747 8.89177 50.9909C7.00792 50.397 5.21337 49.5533 3.55671 48.4826V59.776C3.87088 61.2421 6.27759 62.72 10.0121 63.9624C14.5884 65.4815 20.949 66.4177 28.015 66.4177C28.6967 66.4177 29.3725 66.4177 30.0423 66.4177C30.8024 67.6021 31.6589 68.7226 32.6032 69.7681C31.1093 69.8544 29.58 69.8976 28.015 69.8976C20.5933 69.8976 13.8356 68.8907 8.90955 67.2597C6.31316 66.3942 0.0711342 63.5679 0.0711342 60.194V59.0576C0.0355671 43.6249 0 25.8605 0 10.4278C0 7.20114 3.39073 4.46318 8.89177 2.64376C13.8 1.00686 20.5578 0 27.9794 0C35.4011 0 42.1588 1.00686 47.0849 2.64376C52.0109 4.28065 55.3364 6.71832 55.8818 9.57405C55.9496 9.76301 55.9837 9.96226 55.9826 10.1629V27.8801C54.792 27.6681 53.5874 27.5422 52.3785 27.5033C52.4434 27.3279 52.4775 27.1426 52.4792 26.9557V15.6741C50.8007 16.7638 48.9797 17.6196 47.0671 18.2178C42.1411 19.8488 35.3833 20.8615 27.9617 20.8615C20.54 20.8615 13.8 19.8488 8.89177 18.2178C7.00922 17.6232 5.21502 16.7816 3.55671 15.7153V27.2854C3.87088 28.7516 6.27759 30.2295 10.0121 31.4719C14.5529 32.9733 20.9134 33.9272 27.9794 33.9272C30.398 33.9272 32.7217 33.8153 34.9387 33.6093C34.5712 33.9213 34.2155 34.2452 33.8717 34.5749C33.7413 34.6809 33.6227 34.7928 33.5042 34.9046C32.7552 35.6465 32.0524 36.4331 31.3998 37.2599C30.2794 37.307 29.1472 37.3305 27.9913 37.3305C20.5578 37.3835 13.8 36.3767 8.89177 34.7398C7.00822 34.1477 5.21369 33.306 3.55671 32.2373V43.5307C3.87088 44.9968 6.27759 46.4748 10.0121 47.7171C14.1913 49.1008 19.8583 50.0017 26.2011 50.1489C26.1059 51.0388 26.0584 51.9331 26.0588 52.828C26.0588 53.0871 26.0588 53.3462 26.0588 53.6052L26.0351 53.5817Z" fill="white"/>
</g>
<defs>
<clipPath id="clip0_1_803">
<rect width="71.1875" height="72.3529" fill="white"/>
</clipPath>
</defs>
</svg>
