<svg width="25" height="25" viewBox="0 0 25 25" fill="none" xmlns="http://www.w3.org/2000/svg">
<g clip-path="url(#clip0_1_280)">
<path d="M25 12.5V12.4937C25 8.79475 23.3896 5.47288 20.8323 3.1885L20.8198 3.17808C20.7882 3.14404 20.7529 3.11364 20.7146 3.08746L20.7125 3.08642C18.4412 1.09218 15.5204 -0.00488979 12.4979 0.00100016C9.33959 0.00100016 6.45625 1.17392 4.25834 3.10933L4.27188 3.09788C4.24539 3.11797 4.22096 3.14065 4.19896 3.16558V3.16663C2.87764 4.33662 1.82 5.77401 1.0961 7.3836C0.372214 8.99318 -0.00140301 10.7382 3.95903e-06 12.5031C3.95903e-06 16.201 1.60834 19.5229 4.16355 21.8083L4.17605 21.8187C4.20913 21.8562 4.24615 21.8901 4.28646 21.9198L4.28855 21.9208C6.55921 23.9121 9.4778 25.0075 12.4979 25.002C15.5322 25.0067 18.4633 23.9011 20.7385 21.8937L20.725 21.9052C22.0692 20.7365 23.1467 19.2927 23.8847 17.6715C24.6226 16.0503 25.0036 14.2895 25.0021 12.5083V12.501L25 12.5ZM20.3521 20.6302C19.7329 20.1293 19.067 19.6891 18.3635 19.3156L18.2958 19.2822C18.9344 17.4416 19.3188 15.3197 19.3552 13.1125V13.0958H23.7938C23.6441 15.9514 22.415 18.6435 20.3552 20.627L20.3521 20.6302ZM13.0958 19.0625C14.4323 19.1343 15.6813 19.4281 16.8333 19.9062L16.7583 19.8791C15.8354 21.9833 14.5365 23.4291 13.0958 23.7468V19.0625ZM13.0958 17.8708V13.0958H18.1667C18.1264 15.0731 17.7836 17.0327 17.15 18.9062L17.1906 18.7697C15.8974 18.2382 14.5219 17.9344 13.125 17.8718L13.0969 17.8708H13.0958ZM13.0958 11.9041V7.12912C14.5304 7.06365 15.9427 6.74961 17.2698 6.201L17.1875 6.23121C17.7656 7.91767 18.1208 9.86142 18.1667 11.8822V11.9041H13.0958ZM13.0958 5.93746V1.25517C14.5365 1.57288 15.8354 3.01246 16.7583 5.12288C15.6813 5.57079 14.4323 5.8635 13.126 5.93642L13.0958 5.93746ZM16.0688 1.77079C17.2962 2.1802 18.4442 2.79752 19.4625 3.59579L19.4385 3.57704C18.9771 3.93954 18.4594 4.28121 17.9135 4.57808L17.8552 4.60725C17.4141 3.56634 16.8077 2.60357 16.0594 1.75621L16.0688 1.76767V1.77079ZM11.9021 1.25829V5.93746C10.6172 5.87191 9.35303 5.58653 8.16459 5.09371L8.23959 5.12079C9.16667 3.01662 10.4635 1.57183 11.9042 1.25412L11.9021 1.25829ZM7.14375 4.60413C6.57909 4.30033 6.04108 3.94943 5.53542 3.55517L5.56042 3.57392C6.5491 2.79908 7.66117 2.19621 8.85 1.79058L8.92917 1.76663C8.20044 2.59104 7.60665 3.52549 7.1698 4.53538L7.14375 4.60308V4.60413ZM11.9042 7.12808V11.9031H6.83334C6.87917 9.86037 7.23438 7.91662 7.85313 6.09371L7.8125 6.23017C9.10527 6.76086 10.48 7.06428 11.876 7.12704L11.9042 7.12808ZM11.9042 13.0947V17.8698C10.4696 17.9352 9.05733 18.2493 7.73021 18.7979L7.8125 18.7677C7.23438 17.0823 6.87917 15.1375 6.83334 13.1166V13.0947H11.9042ZM11.9042 19.0614V23.7437C10.4635 23.426 9.16459 21.9864 8.24167 19.876C9.31875 19.4281 10.5677 19.1364 11.874 19.0635L11.9042 19.0625V19.0614ZM8.93542 23.2281C7.70829 22.8199 6.56036 22.204 5.54167 21.4073L5.56667 21.426C6.02813 21.0635 6.54584 20.7218 7.09167 20.425L7.15 20.3958C7.58738 21.4371 8.19381 22.399 8.9448 23.2427L8.93542 23.2323V23.2281ZM17.8563 20.3948C18.4604 20.7229 18.9781 21.0635 19.4646 21.4437L19.4396 21.425C18.4509 22.1998 17.3388 22.8027 16.15 23.2083L16.0708 23.2323C16.7996 22.4082 17.3934 21.4741 17.8302 20.4645L17.8563 20.3968V20.3948ZM23.7938 11.9041H19.3552C19.3233 9.74887 18.9513 7.61215 18.2531 5.57287L18.2958 5.71662C19.0317 5.32919 19.7283 4.8715 20.376 4.34996L20.351 4.36871C22.4065 6.34478 23.6361 9.02687 23.7917 11.8739L23.7927 11.9031L23.7938 11.9041ZM4.64792 4.36975C5.24792 4.85725 5.92188 5.30412 6.63646 5.68433L6.70417 5.71767C6.06563 7.55829 5.68125 9.68017 5.6448 11.8875V11.9041H1.20521C1.35489 9.0485 2.58401 6.35642 4.64375 4.37287L4.64688 4.36975H4.64792ZM1.20625 13.0958H5.6448C5.67673 15.251 6.04867 17.3878 6.74688 19.427L6.70417 19.2833C5.92188 19.6989 5.24896 20.1458 4.62396 20.65L4.64896 20.6312C2.59348 18.6551 1.36392 15.973 1.20834 13.126L1.2073 13.0968L1.20625 13.0958Z" fill="white"/>
</g>
<defs>
<clipPath id="clip0_1_280">
<rect width="25" height="25" fill="white"/>
</clipPath>
</defs>
</svg>
