<svg width="58" height="73" viewBox="0 0 58 73" fill="none" xmlns="http://www.w3.org/2000/svg">
<path opacity="0.9" d="M33.9463 6.20302L45.5013 17.6695L33.7531 17.8549L33.9463 6.20302ZM46.2215 39.5547L46.2427 39.5733C47.4339 40.5256 47.5925 40.691 49.1718 40.7637C50.3404 40.8036 51.6133 40.8507 52.4573 42.0325C53.179 43.0604 53.2409 43.8388 53.2922 44.6158L53.3013 44.7028C53.3556 45.7022 53.6818 46.3508 54.3084 47.152C55.0724 48.103 55.5299 48.9099 55.702 49.6498C56.0568 51.1553 55.3004 52.1547 54.1664 53.06C53.8705 53.2995 53.6078 53.5105 53.5263 53.6844C53.3119 54.1549 53.3013 54.5868 53.3013 55.0373C53.262 57.4367 51.7295 59.4269 48.8774 59.2459C47.668 59.1518 47.3101 59.5481 46.3333 60.2738C44.2798 61.8377 42.6733 61.8249 40.626 60.2638C39.6747 59.5367 39.3214 59.1717 38.0939 59.2359C35.3928 59.407 33.7017 57.5622 33.6579 55.0288C33.6323 53.9011 33.6126 53.7143 32.7732 53.03C31.6347 52.1162 30.8783 51.1539 31.2376 49.6298C31.4097 48.8899 31.8778 48.083 32.6403 47.1335C34.2422 45.1775 33.14 43.9016 34.4929 42.0126L34.5125 41.994C35.3475 40.8321 36.6082 40.7936 37.7678 40.7551C39.3124 40.7067 39.5615 40.4971 40.7075 39.5547C42.6854 37.9281 44.2436 37.9252 46.2215 39.5547ZM55.8862 70.2633L52.8242 69.7444L51.2871 72.3476C51.2781 72.3661 51.2675 72.3861 51.2464 72.3947C50.6062 73.1445 50.0158 73.1246 49.507 72.7311C48.9574 72.3091 48.5905 71.4053 48.358 70.8108L48.2659 70.5898L45.0212 64.8059C44.9185 64.6248 44.991 64.4039 45.1842 64.3169C45.2039 64.3069 45.225 64.2984 45.2341 64.2984C45.5708 64.1929 45.9467 63.9705 46.3544 63.6839C46.7802 63.3845 47.2286 63.0096 47.6861 62.6261C47.7676 62.5591 47.8688 62.5206 47.9805 62.5306C48.8562 62.5491 49.7108 62.4821 50.4733 62.2426C51.2267 62.0016 51.9182 61.5797 52.5086 60.8683C52.64 60.7057 52.8846 60.6758 53.0476 60.8013C53.0884 60.8397 53.1292 60.8782 53.1488 60.9267L56.9023 67.7656L57.2284 68.4285C57.239 68.447 57.2496 68.467 57.2496 68.4855C57.4006 68.9945 57.4323 69.4364 57.2496 69.7729C57.0125 70.2091 56.3663 70.4116 55.8862 70.2633ZM34.1471 69.7444L31.0836 70.2633C30.6367 70.4044 29.9406 70.1778 29.7111 69.7529C29.5284 69.4264 29.5586 68.9845 29.7111 68.467L30.0569 67.7456L33.8104 60.9067C33.8301 60.8597 33.8708 60.8212 33.9116 60.7827C34.0852 60.6573 34.3193 60.6858 34.4521 60.8497C35.6072 62.2483 37.1925 62.5505 38.9787 62.5106C39.0799 62.5021 39.181 62.5306 39.2731 62.6075C39.9073 63.1393 40.9264 64.0261 41.7251 64.2784C41.9441 64.3611 42.0573 64.5849 41.938 64.7874L38.6933 70.5698L38.6012 70.7908C38.3687 71.3867 38.0018 72.2892 37.4522 72.7126C36.9434 73.0961 36.3636 73.1246 35.7129 72.3761C35.2252 71.5051 34.659 70.6112 34.1471 69.7444ZM43.4856 43.5494C41.6346 43.5494 39.9661 44.2608 38.7552 45.4042C37.5443 46.5461 36.7909 48.1215 36.7909 49.8708C36.7909 51.6186 37.5443 53.194 38.7552 54.3373C39.9661 55.4807 41.6346 56.1907 43.4856 56.1907C45.3367 56.1907 47.0051 55.4807 48.2161 54.3373C49.4255 53.194 50.1789 51.6186 50.1789 49.8708C50.1577 46.3836 47.1909 43.5494 43.4856 43.5494ZM10.1644 52.2445H24.8448V50.1616H10.1644V52.2445ZM10.1644 44.2466H30.3513L30.3528 44.2166C30.4042 43.4967 30.5084 42.8451 30.7409 42.1637H10.1644V44.2466ZM10.1644 36.2486H39.8016C40.3497 35.9122 40.9325 35.657 41.5545 35.4702L41.5681 35.4674V34.1658H10.1644V36.2486ZM10.1644 12.2563H20.507V10.1735H10.1644V12.2563ZM10.1644 20.2543H24.8448V18.1714H10.1644V20.2543ZM10.1644 28.2522H41.5274V26.1693H10.1644V28.2522ZM51.734 19.319C51.734 18.4907 51.1437 17.775 50.3329 17.5669L33.3137 0.668631C32.9589 0.255192 32.4198 0 31.8295 0H3.45759C1.5461 0 0 1.45844 0 3.26475V59.1532C0 60.9552 1.54912 62.4179 3.45759 62.4179H29.2416L30.8209 59.5381L30.839 59.501H3.08919V2.9012H30.2789V19.3019C30.2789 20.3056 31.1395 21.1339 32.219 21.1339H48.6449V37.382C49.43 37.9965 49.125 37.6344 49.2413 37.6287C50.12 37.67 50.8719 37.6971 51.734 37.9238V19.319Z" fill="white"/>
</svg>
