<svg width="25" height="21" viewBox="0 0 25 21" fill="none" xmlns="http://www.w3.org/2000/svg">
<path d="M22.4316 5.06055C22.4481 5.28318 22.4481 5.50453 22.4481 5.72588C22.4481 12.5 17.2921 20.3058 7.86943 20.3058C4.96642 20.3058 2.26949 19.4649 0 18.0045C0.412172 18.0516 0.809078 18.0681 1.23779 18.0681C3.54416 18.0737 5.78522 17.3025 7.59974 15.8788C6.53041 15.8594 5.49381 15.5066 4.63469 14.8696C3.77557 14.2327 3.13681 13.3433 2.8076 12.3257C3.12436 12.3728 3.4424 12.4046 3.7757 12.4046C4.23494 12.4046 4.69672 12.341 5.12543 12.2303C3.96494 11.996 2.92142 11.367 2.17232 10.4502C1.42322 9.53341 1.01477 8.38547 1.01644 7.20156V7.13795C1.69957 7.51832 2.49211 7.75621 3.33172 7.78801C2.62834 7.32061 2.0516 6.68637 1.65294 5.94188C1.25427 5.19738 1.04609 4.36578 1.04697 3.52127C1.04697 2.56971 1.30012 1.69703 1.7441 0.936292C3.03167 2.52013 4.63757 3.81585 6.45779 4.73954C8.278 5.66323 10.2719 6.1943 12.3105 6.29834C12.2316 5.9167 12.1832 5.52107 12.1832 5.12416C12.1829 4.45115 12.3152 3.78468 12.5726 3.16283C12.83 2.54099 13.2074 1.97598 13.6833 1.50009C14.1592 1.0242 14.7242 0.646768 15.3461 0.389373C15.9679 0.131978 16.6344 -0.000333782 17.3074 6.32331e-07C18.7831 6.32331e-07 20.115 0.618258 21.0513 1.61816C22.1985 1.39632 23.2986 0.977537 24.3029 0.380369C23.9205 1.56449 23.1195 2.56857 22.0499 3.20451C23.0674 3.08846 24.0617 2.8209 25 2.4107C24.2992 3.43235 23.4308 4.32824 22.4316 5.06055Z" fill="white"/>
</svg>
